<?xml version="1.0" encoding="utf-8"?>
<!-- Generator: Adobe Illustrator 16.0.0, SVG Export Plug-In . SVG Version: 6.00 Build 0)  -->
<!DOCTYPE svg PUBLIC "-//W3C//DTD SVG 1.1//EN" "http://www.w3.org/Graphics/SVG/1.1/DTD/svg11.dtd">
<svg version="1.1" id="Layer_1" xmlns="http://www.w3.org/2000/svg" xmlns:xlink="http://www.w3.org/1999/xlink" x="0px" y="0px"
	 width="756.151px" height="260.214px" viewBox="0 0 756.151 260.214" enable-background="new 0 0 756.151 260.214"
	 xml:space="preserve">
<rect x="0.075" y="0.075" fill="none" stroke="#A6A8AB" stroke-width="0.15" stroke-miterlimit="10" width="756.001" height="260.063"/>
<g>
	<g>
		<rect x="421.002" y="61.079" fill="#DDDDDD" width="133.846" height="148.393"/>
		<rect x="422.003" y="111.079" fill="#FFFFFF" width="57.846" height="90.393"/>
	</g>
	<g>
		<g>
			<g>
				<rect x="421.002" y="50.858" fill="#20B5AE" width="133.846" height="52.365"/>
				<g>
					<g>
						<path fill="#FFFFFF" d="M440.893,67.847c0.562,0,1.023,0.073,1.379,0.218c0.357,0.145,0.637,0.33,0.839,0.554
							s0.343,0.475,0.423,0.752c0.078,0.277,0.118,0.552,0.118,0.825c0,0.247-0.039,0.482-0.117,0.707
							c-0.077,0.224-0.187,0.424-0.325,0.601s-0.299,0.323-0.48,0.442c-0.183,0.119-0.383,0.196-0.599,0.231v0.04
							c0.191,0.035,0.397,0.097,0.62,0.185c0.221,0.088,0.428,0.22,0.619,0.396c0.191,0.176,0.352,0.403,0.482,0.68
							c0.131,0.277,0.195,0.623,0.195,1.036c0,0.335-0.048,0.656-0.145,0.964c-0.098,0.308-0.271,0.581-0.521,0.818
							s-0.588,0.429-1.01,0.574s-0.964,0.218-1.623,0.218h-3.908v-9.24H440.893z M438.081,71.768h2.511
							c0.345,0,0.633-0.04,0.863-0.119c0.229-0.079,0.416-0.185,0.557-0.317c0.143-0.132,0.244-0.284,0.307-0.455
							c0.061-0.172,0.092-0.354,0.092-0.548c0-0.132-0.02-0.282-0.059-0.449c-0.041-0.167-0.123-0.324-0.246-0.469
							c-0.125-0.145-0.304-0.269-0.538-0.37c-0.235-0.101-0.547-0.152-0.937-0.152h-2.55V71.768z M438.081,76.044h2.589
							c0.212,0,0.444-0.015,0.696-0.046c0.253-0.031,0.484-0.101,0.696-0.211c0.213-0.11,0.391-0.272,0.531-0.488
							c0.143-0.215,0.213-0.513,0.213-0.891c0-0.299-0.051-0.55-0.152-0.752c-0.102-0.202-0.246-0.365-0.432-0.488
							c-0.186-0.123-0.409-0.213-0.67-0.271c-0.262-0.057-0.557-0.086-0.883-0.086h-2.589V76.044z"/>
						<path fill="#FFFFFF" d="M445.539,72.362c0-0.22,0.037-0.462,0.112-0.726s0.216-0.508,0.423-0.732
							c0.206-0.225,0.496-0.412,0.871-0.561c0.373-0.149,0.855-0.225,1.445-0.225c0.272,0,0.564,0.026,0.877,0.079
							c0.312,0.053,0.604,0.159,0.871,0.317c0.27,0.159,0.491,0.385,0.667,0.68c0.177,0.295,0.26,0.689,0.251,1.182l-0.066,3.102
							c0,0.132,0.002,0.249,0.007,0.35c0.005,0.102,0.028,0.185,0.073,0.251c0.043,0.066,0.113,0.117,0.211,0.152
							c0.097,0.035,0.232,0.048,0.409,0.04v0.818c-0.079,0.018-0.157,0.031-0.231,0.04s-0.174,0.013-0.297,0.013
							c-0.158,0-0.306-0.011-0.441-0.033c-0.137-0.022-0.256-0.066-0.357-0.132s-0.185-0.163-0.25-0.291
							c-0.066-0.127-0.117-0.301-0.152-0.521c-0.114,0.211-0.256,0.392-0.422,0.541c-0.168,0.15-0.353,0.273-0.555,0.37
							c-0.203,0.097-0.416,0.167-0.641,0.211c-0.225,0.043-0.451,0.066-0.68,0.066c-0.704,0-1.273-0.161-1.709-0.482
							s-0.654-0.833-0.654-1.538c0-0.291,0.045-0.552,0.133-0.786c0.088-0.233,0.255-0.44,0.502-0.621
							c0.246-0.18,0.58-0.33,1.002-0.449c0.423-0.119,0.973-0.209,1.65-0.271c0.246-0.018,0.453-0.035,0.621-0.053
							c0.166-0.018,0.301-0.055,0.402-0.112c0.102-0.057,0.174-0.143,0.218-0.257s0.065-0.282,0.065-0.501
							c0-0.079-0.008-0.193-0.025-0.343c-0.018-0.149-0.075-0.299-0.172-0.449c-0.098-0.149-0.246-0.279-0.449-0.39
							c-0.203-0.11-0.488-0.165-0.857-0.165c-0.105,0-0.258,0.009-0.456,0.026c-0.198,0.018-0.394,0.073-0.587,0.165
							c-0.193,0.093-0.361,0.233-0.502,0.422c-0.141,0.189-0.207,0.46-0.197,0.812H445.539z M449.895,73.655
							c-0.087,0.071-0.179,0.121-0.275,0.152c-0.096,0.031-0.2,0.055-0.313,0.073c-0.114,0.018-0.243,0.033-0.386,0.046
							c-0.145,0.013-0.309,0.033-0.492,0.06c-0.253,0.044-0.495,0.086-0.727,0.125s-0.435,0.101-0.609,0.185
							c-0.174,0.084-0.312,0.205-0.412,0.363c-0.101,0.158-0.15,0.37-0.15,0.633c0,0.396,0.119,0.702,0.359,0.917
							c0.24,0.216,0.549,0.324,0.924,0.324c0.227,0,0.456-0.033,0.688-0.099s0.445-0.185,0.642-0.356
							c0.196-0.172,0.36-0.407,0.491-0.706s0.209-0.682,0.236-1.148L449.895,73.655z"/>
						<path fill="#FFFFFF" d="M454.225,67.847v9.24h-1.162v-9.24H454.225z"/>
						<path fill="#FFFFFF" d="M457.287,67.847v9.24h-1.162v-9.24H457.287z"/>
						<path fill="#FFFFFF" d="M465.128,75.147c-0.044,0.238-0.126,0.486-0.245,0.746c-0.118,0.26-0.289,0.498-0.514,0.713
							c-0.225,0.216-0.514,0.394-0.865,0.535s-0.787,0.211-1.307,0.211c-0.555,0-1.023-0.075-1.406-0.225s-0.699-0.341-0.949-0.574
							c-0.252-0.233-0.447-0.49-0.588-0.772s-0.244-0.555-0.311-0.818c-0.066-0.264-0.105-0.504-0.119-0.72
							c-0.013-0.215-0.02-0.376-0.02-0.481c0-0.15,0.009-0.346,0.027-0.587c0.017-0.242,0.061-0.497,0.131-0.766
							s0.176-0.539,0.317-0.812c0.141-0.272,0.332-0.519,0.574-0.739c0.241-0.22,0.543-0.398,0.903-0.535
							c0.361-0.136,0.801-0.205,1.32-0.205c0.669,0,1.203,0.117,1.604,0.35c0.4,0.233,0.709,0.526,0.925,0.877
							c0.216,0.352,0.36,0.737,0.436,1.155s0.12,0.808,0.139,1.168c0,0.053,0.002,0.108,0.007,0.165
							c0.004,0.058,0.006,0.112,0.006,0.165h-5.16c0,0.291,0.039,0.585,0.118,0.884c0.079,0.299,0.202,0.57,0.37,0.812
							c0.166,0.242,0.385,0.442,0.652,0.601c0.27,0.158,0.597,0.238,0.984,0.238c0.271,0,0.519-0.038,0.738-0.112
							c0.221-0.075,0.407-0.176,0.562-0.304c0.153-0.127,0.276-0.275,0.37-0.442c0.092-0.167,0.155-0.343,0.191-0.528H465.128z
							 M463.967,73.18c-0.01-0.22-0.041-0.462-0.094-0.726c-0.053-0.264-0.146-0.508-0.283-0.732
							c-0.137-0.225-0.323-0.411-0.561-0.561c-0.238-0.149-0.546-0.225-0.924-0.225c-0.423,0-0.771,0.077-1.043,0.231
							c-0.273,0.154-0.486,0.346-0.641,0.574c-0.154,0.229-0.258,0.473-0.311,0.733s-0.078,0.495-0.078,0.706H463.967z"/>
						<path fill="#FFFFFF" d="M470.461,70.936c-0.396,0.018-0.746,0.071-1.05,0.159s-0.563,0.224-0.778,0.409
							c-0.217,0.185-0.388,0.422-0.516,0.713c-0.127,0.29-0.205,0.646-0.23,1.069c-0.01,0.124-0.014,0.242-0.014,0.356
							c0,0.115,0,0.233,0,0.356v3.089h-1.162v-6.706h1.162v1.293h0.026c0.079-0.246,0.196-0.464,0.351-0.653
							c0.153-0.189,0.33-0.348,0.527-0.475c0.198-0.127,0.411-0.227,0.641-0.297c0.229-0.07,0.461-0.11,0.699-0.119l0.344-0.013
							V70.936z"/>
						<path fill="#FFFFFF" d="M471.556,67.847h1.161v1.215h-1.161V67.847z M472.717,70.382v6.706h-1.161v-6.706H472.717z"/>
						<path fill="#FFFFFF" d="M475.753,70.382v0.937c0.229-0.334,0.536-0.618,0.925-0.851c0.387-0.233,0.844-0.35,1.372-0.35
							c0.44,0,0.804,0.068,1.089,0.205c0.286,0.137,0.511,0.319,0.674,0.548c0.162,0.229,0.277,0.495,0.343,0.799
							c0.065,0.303,0.099,0.623,0.099,0.957v4.461h-1.161v-4.105c0-0.176-0.007-0.383-0.021-0.621
							c-0.013-0.238-0.061-0.462-0.145-0.673c-0.084-0.211-0.223-0.389-0.416-0.535c-0.193-0.145-0.471-0.218-0.832-0.218
							c-0.158,0-0.348,0.026-0.566,0.08c-0.221,0.053-0.432,0.165-0.635,0.336c-0.202,0.171-0.373,0.422-0.514,0.752
							c-0.142,0.33-0.212,0.772-0.212,1.327v3.656h-1.161v-6.706H475.753z"/>
						<path fill="#FFFFFF" d="M481.931,72.362c0-0.22,0.037-0.462,0.112-0.726c0.074-0.264,0.215-0.508,0.422-0.732
							c0.207-0.225,0.498-0.412,0.871-0.561c0.375-0.149,0.855-0.225,1.445-0.225c0.273,0,0.566,0.026,0.879,0.079
							c0.312,0.053,0.602,0.159,0.871,0.317c0.268,0.159,0.49,0.385,0.666,0.68c0.176,0.295,0.26,0.689,0.251,1.182l-0.065,3.102
							c0,0.132,0.002,0.249,0.006,0.35c0.004,0.102,0.029,0.185,0.072,0.251c0.045,0.066,0.115,0.117,0.211,0.152
							c0.098,0.035,0.234,0.048,0.41,0.04v0.818c-0.08,0.018-0.156,0.031-0.231,0.04s-0.174,0.013-0.297,0.013
							c-0.158,0-0.306-0.011-0.442-0.033c-0.137-0.022-0.255-0.066-0.355-0.132c-0.102-0.066-0.186-0.163-0.252-0.291
							c-0.065-0.127-0.116-0.301-0.151-0.521c-0.114,0.211-0.255,0.392-0.423,0.541c-0.167,0.15-0.352,0.273-0.554,0.37
							s-0.416,0.167-0.641,0.211c-0.224,0.043-0.45,0.066-0.68,0.066c-0.704,0-1.273-0.161-1.71-0.482
							c-0.436-0.321-0.652-0.833-0.652-1.538c0-0.291,0.043-0.552,0.132-0.786c0.088-0.233,0.255-0.44,0.501-0.621
							c0.246-0.18,0.581-0.33,1.004-0.449c0.422-0.119,0.973-0.209,1.65-0.271c0.246-0.018,0.453-0.035,0.619-0.053
							c0.168-0.018,0.302-0.055,0.403-0.112c0.101-0.057,0.173-0.143,0.218-0.257c0.044-0.114,0.066-0.282,0.066-0.501
							c0-0.079-0.01-0.193-0.027-0.343c-0.018-0.149-0.074-0.299-0.172-0.449c-0.096-0.149-0.246-0.279-0.448-0.39
							c-0.202-0.11-0.488-0.165-0.858-0.165c-0.105,0-0.257,0.009-0.455,0.026c-0.197,0.018-0.394,0.073-0.588,0.165
							c-0.193,0.093-0.36,0.233-0.501,0.422c-0.141,0.189-0.206,0.46-0.198,0.812H481.931z M486.287,73.655
							c-0.088,0.071-0.18,0.121-0.275,0.152c-0.096,0.031-0.201,0.055-0.314,0.073s-0.242,0.033-0.387,0.046s-0.308,0.033-0.49,0.06
							c-0.254,0.044-0.496,0.086-0.728,0.125s-0.435,0.101-0.608,0.185c-0.176,0.084-0.312,0.205-0.413,0.363
							c-0.101,0.158-0.151,0.37-0.151,0.633c0,0.396,0.121,0.702,0.361,0.917c0.24,0.216,0.547,0.324,0.923,0.324
							c0.228,0,0.456-0.033,0.688-0.099s0.445-0.185,0.642-0.356c0.196-0.172,0.36-0.407,0.491-0.706s0.21-0.682,0.235-1.148
							L486.287,73.655z"/>
						<path fill="#FFFFFF" d="M492.701,67.847h4.092c0.168,0,0.359,0.007,0.574,0.02c0.217,0.013,0.438,0.048,0.667,0.105
							c0.229,0.058,0.451,0.139,0.667,0.244c0.215,0.106,0.409,0.249,0.58,0.429c0.172,0.181,0.311,0.409,0.416,0.687
							c0.105,0.277,0.158,0.609,0.158,0.997c0,0.264-0.035,0.521-0.105,0.772c-0.07,0.251-0.174,0.48-0.31,0.687
							c-0.137,0.207-0.304,0.383-0.502,0.528c-0.198,0.146-0.421,0.244-0.667,0.297v0.04c0.311,0.114,0.555,0.25,0.732,0.409
							c0.178,0.158,0.311,0.332,0.398,0.521c0.089,0.189,0.145,0.394,0.166,0.614c0.023,0.22,0.038,0.449,0.047,0.686
							c0.01,0.317,0.016,0.585,0.021,0.805c0.004,0.22,0.015,0.412,0.033,0.574c0.018,0.163,0.051,0.308,0.1,0.436
							c0.049,0.127,0.122,0.257,0.22,0.389h-1.32c-0.079-0.105-0.143-0.209-0.191-0.31s-0.082-0.225-0.1-0.37
							c-0.018-0.146-0.03-0.319-0.039-0.521c-0.009-0.202-0.014-0.453-0.014-0.752c0-0.238-0.013-0.473-0.039-0.706
							c-0.026-0.233-0.097-0.444-0.211-0.634c-0.115-0.189-0.289-0.341-0.521-0.456c-0.233-0.114-0.557-0.171-0.971-0.171h-2.64
							v3.92h-1.241V67.847z M493.942,72.124h2.772c0.148,0,0.327-0.02,0.534-0.059c0.206-0.04,0.407-0.119,0.601-0.238
							s0.356-0.286,0.488-0.501c0.133-0.216,0.198-0.504,0.198-0.865c0-0.299-0.051-0.55-0.151-0.752
							c-0.102-0.202-0.24-0.365-0.416-0.488c-0.176-0.123-0.388-0.209-0.634-0.257c-0.247-0.048-0.515-0.073-0.806-0.073h-2.587
							V72.124z"/>
						<path fill="#FFFFFF" d="M507.775,71.794v1.042h-4.844v3.208h5.491v1.043h-6.731v-9.24h6.586v1.043h-5.346v2.904H507.775z"/>
						<path fill="#FFFFFF" d="M510.482,74.157c-0.009,0.308,0.044,0.594,0.158,0.858c0.114,0.264,0.286,0.493,0.515,0.686
							c0.229,0.194,0.509,0.346,0.839,0.456c0.33,0.11,0.705,0.165,1.128,0.165c0.413,0,0.764-0.048,1.05-0.145
							c0.285-0.097,0.52-0.225,0.699-0.383c0.181-0.159,0.312-0.341,0.396-0.548c0.083-0.207,0.125-0.42,0.125-0.64
							c0-0.282-0.057-0.517-0.172-0.707c-0.114-0.189-0.26-0.343-0.436-0.462c-0.176-0.119-0.376-0.213-0.6-0.284
							c-0.225-0.07-0.443-0.127-0.654-0.171c-0.527-0.114-1.031-0.222-1.512-0.324c-0.479-0.101-0.901-0.244-1.267-0.429
							c-0.365-0.185-0.655-0.434-0.871-0.746c-0.216-0.312-0.323-0.732-0.323-1.26c0-0.431,0.083-0.814,0.25-1.148
							c0.168-0.334,0.405-0.612,0.713-0.832c0.309-0.22,0.678-0.387,1.109-0.501c0.431-0.114,0.906-0.171,1.426-0.171
							c0.572,0,1.066,0.072,1.484,0.218c0.418,0.145,0.766,0.341,1.043,0.587s0.488,0.532,0.634,0.858s0.231,0.665,0.257,1.017
							h-1.24c-0.045-0.378-0.156-0.678-0.337-0.898c-0.181-0.22-0.385-0.385-0.614-0.495c-0.229-0.11-0.461-0.178-0.699-0.205
							c-0.237-0.027-0.427-0.04-0.567-0.04c-0.643,0-1.159,0.139-1.551,0.416s-0.587,0.653-0.587,1.128
							c0,0.282,0.062,0.508,0.191,0.68c0.127,0.171,0.297,0.312,0.508,0.422s0.455,0.196,0.732,0.257s0.569,0.123,0.878,0.185
							c0.413,0.079,0.829,0.17,1.247,0.271c0.418,0.102,0.797,0.253,1.135,0.456c0.34,0.203,0.614,0.473,0.826,0.812
							c0.211,0.339,0.316,0.785,0.316,1.34c0,0.458-0.072,0.845-0.219,1.162c-0.145,0.316-0.332,0.579-0.561,0.785
							c-0.229,0.207-0.484,0.368-0.766,0.482s-0.557,0.198-0.824,0.25c-0.27,0.053-0.52,0.084-0.753,0.093
							c-0.233,0.008-0.411,0.013-0.534,0.013c-0.326,0-0.702-0.031-1.129-0.093c-0.428-0.062-0.834-0.2-1.221-0.416
							c-0.388-0.215-0.72-0.537-0.997-0.964c-0.277-0.426-0.434-1.005-0.468-1.735H510.482z"/>
						<path fill="#FFFFFF" d="M517.478,68.89v-1.043h7.247v1.043h-2.996v8.197h-1.241V68.89H517.478z"/>
						<path fill="#FFFFFF" d="M528.395,71.2h-1.465v5.887h-1.162V71.2h-1.24v-0.818h1.24v-0.911c0-0.581,0.146-1.005,0.436-1.274
							c0.291-0.269,0.734-0.403,1.334-0.403c0.123,0,0.272,0.007,0.448,0.02c0.177,0.013,0.312,0.024,0.409,0.033v0.819
							c-0.281-0.018-0.473-0.024-0.574-0.02s-0.183,0.007-0.244,0.007c-0.158,0-0.281,0.035-0.369,0.105s-0.152,0.154-0.191,0.25
							c-0.04,0.097-0.064,0.198-0.072,0.304c-0.01,0.105-0.014,0.194-0.014,0.264v0.805h1.465V71.2z"/>
						<path fill="#FFFFFF" d="M534.018,77.087v-0.95h-0.026c-0.167,0.29-0.37,0.517-0.607,0.68
							c-0.237,0.163-0.468,0.284-0.692,0.363s-0.428,0.127-0.607,0.146c-0.181,0.018-0.302,0.026-0.363,0.026
							c-0.493,0-0.887-0.084-1.182-0.251s-0.517-0.378-0.666-0.634c-0.15-0.255-0.246-0.528-0.291-0.818
							c-0.044-0.29-0.066-0.563-0.066-0.818v-4.448h1.162v4.105c0,0.422,0.035,0.766,0.105,1.03s0.168,0.473,0.291,0.627
							c0.123,0.154,0.271,0.257,0.441,0.31c0.172,0.053,0.363,0.08,0.574,0.08c0.484,0,0.858-0.108,1.123-0.324
							c0.264-0.215,0.455-0.464,0.574-0.746c0.118-0.282,0.186-0.559,0.204-0.832c0.018-0.273,0.026-0.471,0.026-0.594v-3.656h1.162
							v6.706H534.018z"/>
						<path fill="#FFFFFF" d="M538.241,67.847v9.24h-1.161v-9.24H538.241z"/>
						<path fill="#FFFFFF" d="M436.465,91.757c-0.045,0.238-0.125,0.486-0.244,0.746c-0.119,0.26-0.291,0.498-0.516,0.713
							c-0.224,0.216-0.512,0.394-0.864,0.535s-0.788,0.211-1.307,0.211c-0.554,0-1.022-0.075-1.405-0.225s-0.7-0.341-0.951-0.574
							c-0.25-0.233-0.446-0.49-0.587-0.772c-0.142-0.282-0.245-0.555-0.311-0.818c-0.065-0.264-0.105-0.504-0.118-0.72
							c-0.014-0.215-0.021-0.376-0.021-0.481c0-0.15,0.009-0.346,0.026-0.587c0.018-0.242,0.062-0.497,0.133-0.766
							c0.07-0.269,0.176-0.539,0.316-0.812c0.141-0.272,0.332-0.519,0.574-0.739c0.242-0.22,0.543-0.398,0.904-0.535
							c0.36-0.136,0.801-0.205,1.32-0.205c0.668,0,1.203,0.117,1.604,0.35c0.4,0.233,0.708,0.526,0.924,0.877
							c0.215,0.352,0.36,0.737,0.436,1.155c0.074,0.418,0.121,0.808,0.139,1.168c0,0.053,0.002,0.108,0.006,0.165
							c0.005,0.058,0.008,0.112,0.008,0.165h-5.162c0,0.291,0.04,0.585,0.119,0.884c0.079,0.299,0.202,0.57,0.369,0.812
							c0.168,0.242,0.385,0.442,0.654,0.601c0.268,0.158,0.596,0.238,0.982,0.238c0.273,0,0.52-0.038,0.74-0.112
							c0.219-0.075,0.406-0.176,0.561-0.304s0.277-0.275,0.369-0.442c0.093-0.167,0.156-0.343,0.191-0.528H436.465z M435.303,89.79
							c-0.009-0.22-0.039-0.462-0.092-0.726c-0.053-0.264-0.148-0.508-0.284-0.732c-0.137-0.225-0.323-0.411-0.562-0.561
							c-0.236-0.149-0.545-0.225-0.924-0.225c-0.422,0-0.77,0.077-1.043,0.231c-0.272,0.154-0.486,0.346-0.64,0.574
							c-0.153,0.229-0.257,0.473-0.31,0.733s-0.08,0.495-0.08,0.706H435.303z"/>
						<path fill="#FFFFFF" d="M438.141,89.605h3.485v1.122h-3.485V89.605z"/>
						<path fill="#FFFFFF" d="M444.305,91.704c0.01,0.264,0.066,0.488,0.171,0.673c0.104,0.185,0.242,0.334,0.412,0.449
							c0.171,0.114,0.362,0.196,0.577,0.244c0.213,0.048,0.43,0.073,0.648,0.073c0.383,0,0.68-0.053,0.891-0.159
							c0.209-0.105,0.361-0.229,0.457-0.37c0.097-0.141,0.151-0.281,0.164-0.422c0.014-0.141,0.02-0.246,0.02-0.317
							c0-0.105-0.011-0.209-0.032-0.31c-0.022-0.101-0.081-0.198-0.177-0.291c-0.097-0.092-0.238-0.18-0.427-0.264
							s-0.444-0.165-0.768-0.244l-0.708-0.159c-0.28-0.062-0.547-0.132-0.801-0.211c-0.254-0.08-0.477-0.189-0.668-0.33
							c-0.193-0.141-0.346-0.324-0.46-0.548c-0.114-0.225-0.171-0.513-0.171-0.865c0-0.37,0.075-0.68,0.225-0.931
							c0.15-0.25,0.348-0.449,0.594-0.594c0.246-0.146,0.52-0.249,0.818-0.311c0.3-0.061,0.604-0.092,0.911-0.092
							c0.572,0,1.032,0.071,1.38,0.211s0.617,0.314,0.812,0.521c0.193,0.207,0.325,0.427,0.396,0.66
							c0.07,0.233,0.115,0.442,0.133,0.627h-1.109c-0.009-0.097-0.033-0.213-0.072-0.35c-0.041-0.136-0.115-0.269-0.227-0.396
							c-0.109-0.127-0.267-0.235-0.471-0.323c-0.203-0.088-0.473-0.132-0.809-0.132c-0.035,0-0.128,0.005-0.277,0.013
							c-0.15,0.009-0.308,0.046-0.471,0.112c-0.164,0.066-0.312,0.172-0.445,0.317c-0.132,0.145-0.198,0.35-0.198,0.614
							c0,0.238,0.051,0.427,0.152,0.567c0.102,0.141,0.238,0.251,0.41,0.33c0.173,0.08,0.37,0.143,0.597,0.191
							c0.225,0.049,0.456,0.099,0.695,0.152c0.344,0.079,0.661,0.161,0.953,0.244c0.291,0.084,0.545,0.194,0.761,0.33
							c0.216,0.137,0.384,0.315,0.503,0.535c0.119,0.22,0.18,0.501,0.18,0.845c0,0.352-0.062,0.649-0.186,0.891
							s-0.277,0.444-0.462,0.607c-0.185,0.163-0.39,0.289-0.614,0.376c-0.224,0.088-0.439,0.154-0.646,0.198s-0.387,0.07-0.541,0.08
							c-0.154,0.008-0.258,0.013-0.311,0.013c-0.502,0-0.935-0.06-1.3-0.178c-0.365-0.119-0.671-0.282-0.917-0.489
							c-0.247-0.207-0.432-0.446-0.555-0.719c-0.123-0.272-0.189-0.563-0.198-0.871H444.305z"/>
						<path fill="#FFFFFF" d="M451.459,84.457v3.472c0.309-0.422,0.649-0.728,1.023-0.917c0.374-0.189,0.799-0.284,1.273-0.284
							c0.37,0,0.683,0.049,0.938,0.146c0.256,0.097,0.465,0.224,0.627,0.383c0.163,0.158,0.286,0.332,0.37,0.521
							c0.083,0.189,0.146,0.376,0.185,0.561c0.039,0.185,0.062,0.359,0.066,0.521c0.004,0.163,0.006,0.289,0.006,0.376v4.461h-1.161
							v-4.105c0-0.194-0.005-0.409-0.013-0.647c-0.01-0.238-0.059-0.46-0.146-0.667c-0.088-0.207-0.227-0.381-0.415-0.521
							c-0.189-0.141-0.464-0.211-0.825-0.211c-0.158,0-0.348,0.026-0.567,0.08c-0.22,0.053-0.431,0.165-0.634,0.336
							c-0.203,0.171-0.374,0.422-0.515,0.752c-0.142,0.33-0.212,0.772-0.212,1.327v3.656h-1.161v-9.24H451.459z"/>
						<path fill="#FFFFFF" d="M457.465,90.344c0-0.449,0.058-0.889,0.172-1.32c0.115-0.431,0.302-0.816,0.562-1.155
							c0.259-0.339,0.601-0.614,1.022-0.825c0.423-0.211,0.938-0.317,1.545-0.317s1.122,0.106,1.545,0.317
							c0.422,0.211,0.763,0.486,1.022,0.825c0.259,0.339,0.446,0.724,0.562,1.155c0.113,0.431,0.171,0.871,0.171,1.32
							c0,0.449-0.058,0.889-0.171,1.32c-0.115,0.431-0.303,0.816-0.562,1.155c-0.26,0.339-0.601,0.614-1.022,0.825
							c-0.423,0.211-0.938,0.317-1.545,0.317s-1.122-0.106-1.545-0.317c-0.422-0.211-0.764-0.486-1.022-0.825
							c-0.26-0.338-0.446-0.724-0.562-1.155C457.522,91.233,457.465,90.793,457.465,90.344z M458.693,90.344
							c0,0.666,0.084,1.187,0.25,1.563c0.168,0.377,0.365,0.657,0.595,0.841c0.229,0.184,0.458,0.296,0.687,0.335
							c0.229,0.039,0.409,0.059,0.541,0.059s0.312-0.02,0.541-0.059c0.229-0.04,0.457-0.151,0.687-0.335
							c0.229-0.184,0.427-0.464,0.594-0.841c0.167-0.376,0.251-0.897,0.251-1.563c0-0.666-0.084-1.187-0.251-1.563
							c-0.167-0.377-0.365-0.657-0.594-0.841c-0.229-0.184-0.458-0.296-0.687-0.335c-0.229-0.04-0.409-0.06-0.541-0.06
							s-0.312,0.02-0.541,0.06c-0.229,0.039-0.458,0.151-0.687,0.335c-0.229,0.184-0.427,0.464-0.595,0.841
							C458.777,89.158,458.693,89.679,458.693,90.344z"/>
						<path fill="#FFFFFF" d="M466.666,86.992v0.924h0.039c0.168-0.255,0.351-0.459,0.549-0.614
							c0.197-0.154,0.396-0.275,0.594-0.363c0.197-0.088,0.389-0.146,0.574-0.172c0.185-0.026,0.352-0.04,0.502-0.04
							c0.413,0,0.803,0.071,1.168,0.211s0.686,0.358,0.963,0.653s0.496,0.671,0.654,1.128c0.158,0.458,0.237,0.999,0.237,1.624
							c0,0.651-0.084,1.206-0.251,1.664c-0.168,0.458-0.392,0.832-0.674,1.122c-0.281,0.29-0.602,0.501-0.963,0.633
							c-0.361,0.132-0.73,0.198-1.109,0.198c-0.07,0-0.195-0.009-0.375-0.026c-0.182-0.018-0.381-0.068-0.602-0.152
							c-0.22-0.084-0.441-0.207-0.666-0.37s-0.412-0.39-0.562-0.68v3.405h-1.161v-9.147H466.666z M466.666,90.371
							c0,0.519,0.066,0.955,0.198,1.307s0.302,0.638,0.508,0.858c0.207,0.22,0.431,0.376,0.673,0.469s0.474,0.139,0.693,0.139
							c0.238,0,0.473-0.046,0.707-0.139c0.232-0.092,0.443-0.247,0.633-0.462c0.189-0.216,0.344-0.502,0.463-0.858
							c0.118-0.356,0.178-0.803,0.178-1.34c0-0.862-0.176-1.544-0.528-2.046c-0.353-0.501-0.858-0.752-1.519-0.752
							c-0.148,0-0.338,0.029-0.566,0.086c-0.229,0.057-0.449,0.183-0.66,0.376c-0.211,0.193-0.395,0.477-0.549,0.851
							C466.743,89.233,466.666,89.737,466.666,90.371z"/>
						<path fill="#FFFFFF" d="M474.546,86.992v0.924h0.04c0.166-0.255,0.35-0.459,0.547-0.614c0.199-0.154,0.396-0.275,0.595-0.363
							s0.39-0.146,0.574-0.172s0.352-0.04,0.501-0.04c0.414,0,0.803,0.071,1.168,0.211s0.688,0.358,0.965,0.653
							s0.494,0.671,0.652,1.128c0.158,0.458,0.238,0.999,0.238,1.624c0,0.651-0.084,1.206-0.251,1.664s-0.392,0.832-0.673,1.122
							c-0.282,0.29-0.604,0.501-0.964,0.633c-0.36,0.132-0.73,0.198-1.108,0.198c-0.07,0-0.196-0.009-0.377-0.026
							c-0.18-0.018-0.381-0.068-0.6-0.152c-0.221-0.084-0.443-0.207-0.668-0.37c-0.224-0.163-0.41-0.39-0.561-0.68v3.405h-1.162
							v-9.147H474.546z M474.546,90.371c0,0.519,0.065,0.955,0.198,1.307c0.132,0.352,0.301,0.638,0.508,0.858
							c0.207,0.22,0.432,0.376,0.674,0.469s0.473,0.139,0.692,0.139c0.237,0,0.474-0.046,0.706-0.139
							c0.233-0.092,0.445-0.247,0.634-0.462c0.189-0.216,0.343-0.502,0.462-0.858s0.178-0.803,0.178-1.34
							c0-0.862-0.176-1.544-0.527-2.046c-0.352-0.501-0.857-0.752-1.518-0.752c-0.15,0-0.34,0.029-0.568,0.086
							s-0.448,0.183-0.66,0.376c-0.211,0.193-0.394,0.477-0.547,0.851C474.623,89.233,474.546,89.737,474.546,90.371z"/>
						<path fill="#FFFFFF" d="M481.317,84.457h1.161v1.215h-1.161V84.457z M482.479,86.992v6.706h-1.161v-6.706H482.479z"/>
						<path fill="#FFFFFF" d="M485.515,86.992v0.937c0.229-0.334,0.536-0.618,0.925-0.851c0.387-0.233,0.844-0.35,1.372-0.35
							c0.44,0,0.804,0.068,1.089,0.205c0.286,0.137,0.511,0.319,0.674,0.548c0.162,0.229,0.277,0.495,0.343,0.799
							c0.065,0.303,0.099,0.623,0.099,0.957v4.461h-1.161v-4.105c0-0.176-0.007-0.383-0.021-0.621
							c-0.013-0.238-0.061-0.462-0.145-0.673c-0.084-0.211-0.223-0.389-0.416-0.535c-0.193-0.145-0.471-0.218-0.832-0.218
							c-0.158,0-0.348,0.026-0.566,0.08c-0.221,0.053-0.432,0.165-0.635,0.336c-0.202,0.171-0.373,0.422-0.514,0.752
							c-0.142,0.33-0.212,0.772-0.212,1.327v3.656h-1.161v-6.706H485.515z"/>
						<path fill="#FFFFFF" d="M493.158,94.454c0.053,0.195,0.141,0.355,0.264,0.479c0.123,0.125,0.266,0.224,0.429,0.3
							s0.339,0.126,0.528,0.153c0.189,0.026,0.371,0.04,0.547,0.04c0.458,0,0.811-0.093,1.057-0.278s0.429-0.398,0.548-0.637
							c0.118-0.239,0.188-0.473,0.211-0.703s0.033-0.389,0.033-0.478v-0.729c-0.159,0.255-0.312,0.469-0.462,0.64
							c-0.15,0.172-0.311,0.311-0.482,0.416s-0.355,0.183-0.555,0.231c-0.197,0.048-0.42,0.073-0.666,0.073
							c-0.396,0-0.776-0.071-1.142-0.211s-0.687-0.358-0.964-0.653s-0.5-0.673-0.666-1.135c-0.168-0.462-0.251-1.019-0.251-1.67
							c0-0.105,0.004-0.266,0.013-0.481c0.009-0.216,0.04-0.456,0.093-0.72c0.053-0.264,0.139-0.535,0.257-0.812
							c0.119-0.277,0.286-0.533,0.502-0.766c0.216-0.233,0.488-0.422,0.818-0.568c0.33-0.145,0.737-0.218,1.221-0.218
							c0.555,0,1.027,0.102,1.42,0.304c0.391,0.203,0.692,0.497,0.904,0.884h0.039v-0.924h1.082v6.534
							c0,0.431-0.059,0.796-0.178,1.095s-0.271,0.55-0.455,0.752c-0.186,0.203-0.395,0.361-0.627,0.475
							c-0.234,0.114-0.461,0.203-0.68,0.264c-0.221,0.062-0.428,0.099-0.621,0.112s-0.344,0.02-0.449,0.02
							c-0.158,0-0.378-0.009-0.66-0.026c-0.281-0.018-0.569-0.082-0.863-0.191c-0.295-0.11-0.568-0.286-0.818-0.527
							c-0.252-0.241-0.43-0.59-0.535-1.047H493.158z M494.873,93.143c0.105,0,0.269-0.029,0.488-0.086
							c0.221-0.057,0.44-0.185,0.66-0.383c0.221-0.198,0.414-0.486,0.581-0.865c0.167-0.378,0.251-0.893,0.251-1.544
							c0-0.845-0.176-1.509-0.527-1.993c-0.353-0.484-0.872-0.726-1.559-0.726c-0.325,0-0.6,0.055-0.824,0.165
							c-0.225,0.11-0.41,0.249-0.555,0.416c-0.146,0.167-0.256,0.356-0.33,0.567c-0.075,0.211-0.133,0.416-0.172,0.614
							c-0.039,0.198-0.062,0.383-0.066,0.555c-0.004,0.171-0.006,0.301-0.006,0.389c0,0.678,0.081,1.21,0.244,1.597
							c0.162,0.388,0.356,0.676,0.58,0.865c0.225,0.189,0.453,0.308,0.688,0.356C494.559,93.119,494.742,93.143,494.873,93.143z"/>
						<path fill="#FFFFFF" d="M503.599,91.704c0.009,0.264,0.065,0.488,0.171,0.673c0.104,0.185,0.242,0.334,0.412,0.449
							s0.362,0.196,0.576,0.244s0.43,0.073,0.648,0.073c0.384,0,0.681-0.053,0.891-0.159c0.209-0.105,0.361-0.229,0.458-0.37
							c0.097-0.141,0.151-0.281,0.164-0.422c0.013-0.141,0.02-0.246,0.02-0.317c0-0.105-0.011-0.209-0.032-0.31
							c-0.022-0.101-0.082-0.198-0.178-0.291c-0.096-0.092-0.238-0.18-0.426-0.264c-0.189-0.083-0.444-0.165-0.768-0.244
							l-0.709-0.159c-0.279-0.062-0.547-0.132-0.801-0.211c-0.253-0.08-0.477-0.189-0.668-0.33
							c-0.193-0.141-0.346-0.324-0.459-0.548c-0.114-0.225-0.171-0.513-0.171-0.865c0-0.37,0.075-0.68,0.225-0.931
							c0.149-0.25,0.347-0.449,0.594-0.594c0.246-0.146,0.519-0.249,0.818-0.311c0.3-0.061,0.603-0.092,0.911-0.092
							c0.572,0,1.031,0.071,1.379,0.211s0.618,0.314,0.812,0.521c0.193,0.207,0.325,0.427,0.396,0.66
							c0.07,0.233,0.114,0.442,0.132,0.627h-1.108c-0.009-0.097-0.033-0.213-0.073-0.35c-0.04-0.136-0.115-0.269-0.226-0.396
							s-0.267-0.235-0.471-0.323c-0.203-0.088-0.473-0.132-0.809-0.132c-0.035,0-0.128,0.005-0.278,0.013
							c-0.15,0.009-0.307,0.046-0.471,0.112s-0.312,0.172-0.444,0.317c-0.132,0.145-0.198,0.35-0.198,0.614
							c0,0.238,0.051,0.427,0.152,0.567c0.102,0.141,0.238,0.251,0.41,0.33c0.172,0.08,0.37,0.143,0.596,0.191
							c0.225,0.049,0.457,0.099,0.695,0.152c0.344,0.079,0.662,0.161,0.953,0.244c0.291,0.084,0.545,0.194,0.762,0.33
							c0.216,0.137,0.383,0.315,0.503,0.535c0.119,0.22,0.179,0.501,0.179,0.845c0,0.352-0.062,0.649-0.186,0.891
							s-0.276,0.444-0.461,0.607c-0.186,0.163-0.39,0.289-0.614,0.376c-0.224,0.088-0.44,0.154-0.647,0.198
							c-0.206,0.044-0.387,0.07-0.541,0.08c-0.153,0.008-0.257,0.013-0.31,0.013c-0.502,0-0.935-0.06-1.3-0.178
							c-0.365-0.119-0.672-0.282-0.918-0.489c-0.246-0.207-0.432-0.446-0.555-0.719c-0.123-0.272-0.189-0.563-0.197-0.871H503.599z"
							/>
						<path fill="#FFFFFF" d="M515.531,91.757c-0.044,0.238-0.125,0.486-0.244,0.746c-0.119,0.26-0.29,0.498-0.515,0.713
							c-0.224,0.216-0.513,0.394-0.864,0.535c-0.353,0.141-0.788,0.211-1.307,0.211c-0.555,0-1.023-0.075-1.406-0.225
							s-0.699-0.341-0.95-0.574c-0.251-0.233-0.446-0.49-0.587-0.772c-0.142-0.282-0.245-0.555-0.311-0.818
							c-0.066-0.264-0.105-0.504-0.119-0.72c-0.014-0.215-0.02-0.376-0.02-0.481c0-0.15,0.008-0.346,0.026-0.587
							c0.017-0.242,0.062-0.497,0.132-0.766s0.176-0.539,0.316-0.812c0.141-0.272,0.332-0.519,0.574-0.739
							c0.242-0.22,0.543-0.398,0.904-0.535c0.361-0.136,0.801-0.205,1.32-0.205c0.668,0,1.203,0.117,1.604,0.35
							c0.4,0.233,0.709,0.526,0.924,0.877c0.216,0.352,0.361,0.737,0.436,1.155c0.075,0.418,0.121,0.808,0.139,1.168
							c0,0.053,0.002,0.108,0.007,0.165c0.005,0.058,0.007,0.112,0.007,0.165h-5.161c0,0.291,0.04,0.585,0.118,0.884
							c0.08,0.299,0.203,0.57,0.37,0.812s0.385,0.442,0.653,0.601s0.596,0.238,0.983,0.238c0.272,0,0.519-0.038,0.739-0.112
							c0.22-0.075,0.406-0.176,0.561-0.304s0.277-0.275,0.37-0.442c0.093-0.167,0.155-0.343,0.191-0.528H515.531z M514.37,89.79
							c-0.009-0.22-0.04-0.462-0.093-0.726c-0.053-0.264-0.147-0.508-0.283-0.732c-0.137-0.225-0.324-0.411-0.562-0.561
							c-0.237-0.149-0.546-0.225-0.924-0.225c-0.423,0-0.771,0.077-1.043,0.231c-0.272,0.154-0.486,0.346-0.64,0.574
							c-0.154,0.229-0.258,0.473-0.311,0.733s-0.079,0.495-0.079,0.706H514.37z"/>
						<path fill="#FFFFFF" d="M520.864,87.546c-0.396,0.018-0.745,0.071-1.05,0.159c-0.303,0.088-0.562,0.224-0.778,0.409
							c-0.216,0.185-0.388,0.422-0.515,0.713c-0.128,0.29-0.205,0.646-0.231,1.069c-0.009,0.124-0.013,0.242-0.013,0.356
							c0,0.115,0,0.233,0,0.356v3.089h-1.162v-6.706h1.162v1.293h0.025c0.08-0.246,0.196-0.464,0.351-0.653
							c0.153-0.189,0.33-0.348,0.528-0.475c0.197-0.127,0.41-0.227,0.64-0.297s0.462-0.11,0.7-0.119l0.343-0.013V87.546z"/>
						<path fill="#FFFFFF" d="M526.355,86.992h1.24l-2.481,6.706h-1.32l-2.481-6.706h1.24l1.901,5.544L526.355,86.992z"/>
						<path fill="#FFFFFF" d="M528.493,84.457h1.161v1.215h-1.161V84.457z M529.654,86.992v6.706h-1.161v-6.706H529.654z"/>
						<path fill="#FFFFFF" d="M537.337,91.308c-0.018,0.203-0.068,0.453-0.151,0.752c-0.084,0.299-0.229,0.589-0.436,0.871
							c-0.207,0.282-0.498,0.524-0.871,0.726c-0.375,0.202-0.861,0.304-1.459,0.304c-0.115,0-0.273-0.009-0.475-0.026
							c-0.203-0.018-0.428-0.062-0.674-0.132s-0.495-0.183-0.746-0.336c-0.25-0.154-0.477-0.365-0.68-0.634
							c-0.203-0.268-0.369-0.609-0.502-1.023c-0.131-0.414-0.197-0.919-0.197-1.518c0-0.387,0.043-0.792,0.132-1.214
							c0.088-0.422,0.251-0.807,0.488-1.155s0.563-0.634,0.978-0.858c0.412-0.225,0.945-0.337,1.597-0.337
							c0.476,0,0.889,0.064,1.241,0.191c0.352,0.128,0.646,0.302,0.884,0.521c0.237,0.22,0.425,0.471,0.562,0.752
							c0.136,0.282,0.222,0.581,0.257,0.897h-1.108c-0.062-0.37-0.172-0.66-0.33-0.871c-0.158-0.211-0.33-0.365-0.516-0.462
							c-0.184-0.097-0.367-0.156-0.547-0.178c-0.181-0.022-0.319-0.033-0.416-0.033c-0.361,0-0.669,0.073-0.924,0.218
							c-0.256,0.146-0.463,0.341-0.621,0.587c-0.158,0.247-0.272,0.537-0.343,0.872c-0.071,0.334-0.105,0.691-0.105,1.069
							c0,0.378,0.04,0.739,0.118,1.083c0.08,0.343,0.201,0.647,0.363,0.911c0.163,0.264,0.377,0.473,0.641,0.627
							c0.264,0.154,0.58,0.231,0.95,0.231c0.325,0,0.601-0.062,0.825-0.185c0.225-0.123,0.406-0.275,0.547-0.456
							c0.141-0.18,0.242-0.378,0.305-0.594c0.061-0.215,0.096-0.416,0.105-0.601H537.337z"/>
						<path fill="#FFFFFF" d="M544.703,91.757c-0.045,0.238-0.126,0.486-0.245,0.746c-0.118,0.26-0.29,0.498-0.515,0.713
							c-0.225,0.216-0.513,0.394-0.865,0.535c-0.352,0.141-0.787,0.211-1.307,0.211c-0.554,0-1.022-0.075-1.405-0.225
							s-0.7-0.341-0.95-0.574c-0.251-0.233-0.447-0.49-0.588-0.772s-0.244-0.555-0.311-0.818c-0.065-0.264-0.105-0.504-0.118-0.72
							c-0.013-0.215-0.021-0.376-0.021-0.481c0-0.15,0.01-0.346,0.027-0.587c0.018-0.242,0.061-0.497,0.132-0.766
							c0.07-0.269,0.176-0.539,0.317-0.812c0.141-0.272,0.332-0.519,0.574-0.739c0.241-0.22,0.543-0.398,0.903-0.535
							c0.36-0.136,0.801-0.205,1.32-0.205c0.669,0,1.203,0.117,1.604,0.35c0.4,0.233,0.708,0.526,0.925,0.877
							c0.215,0.352,0.359,0.737,0.436,1.155c0.074,0.418,0.12,0.808,0.139,1.168c0,0.053,0.002,0.108,0.006,0.165
							c0.004,0.058,0.007,0.112,0.007,0.165h-5.161c0,0.291,0.039,0.585,0.119,0.884c0.078,0.299,0.201,0.57,0.369,0.812
							c0.167,0.242,0.385,0.442,0.653,0.601s0.597,0.238,0.983,0.238c0.272,0,0.52-0.038,0.739-0.112s0.407-0.176,0.562-0.304
							c0.153-0.127,0.276-0.275,0.369-0.442c0.092-0.167,0.156-0.343,0.191-0.528H544.703z M543.541,89.79
							c-0.01-0.22-0.04-0.462-0.093-0.726c-0.053-0.264-0.147-0.508-0.284-0.732c-0.137-0.225-0.322-0.411-0.561-0.561
							c-0.237-0.149-0.545-0.225-0.924-0.225c-0.422,0-0.77,0.077-1.043,0.231c-0.273,0.154-0.486,0.346-0.641,0.574
							c-0.153,0.229-0.257,0.473-0.31,0.733s-0.079,0.495-0.079,0.706H543.541z"/>
					</g>
				</g>
			</g>
			<g>
				<g>
					<g>
						<path fill="#585A5E" d="M434.697,163.627v-1.036l8.596-3.359v1.12l-2.59,0.994v3.542l2.59,0.979v1.12L434.697,163.627z
							 M436.068,163.123l3.668,1.4v-2.8L436.068,163.123z"/>
						<path fill="#585A5E" d="M439.85,154.695v2.114h3.443v1.105h-8.596v-3.22c0-0.887,0.222-1.579,0.664-2.079
							c0.443-0.499,1.081-0.749,1.912-0.749c0.83,0,1.467,0.252,1.91,0.756C439.627,153.128,439.85,153.818,439.85,154.695z
							 M437.273,152.96c-0.504,0-0.898,0.151-1.184,0.454c-0.285,0.304-0.427,0.74-0.427,1.31v2.086h3.206v-2.086
							c0-0.569-0.143-1.006-0.428-1.31C438.157,153.111,437.768,152.96,437.273,152.96z"/>
						<path fill="#585A5E" d="M434.697,149.292h8.596v1.105h-8.596V149.292z"/>
						<path fill="#585A5E" d="M456.604,174.33v2.058h-0.953v-3.108h0.588c1.139,0,2.055,0.329,2.744,0.987
							c0.691,0.658,1.037,1.515,1.037,2.569c0,1.139-0.406,2.081-1.219,2.828c-0.812,0.746-1.881,1.12-3.205,1.12
							c-1.316,0-2.383-0.374-3.199-1.12c-0.816-0.747-1.225-1.681-1.225-2.801c0-0.896,0.236-1.64,0.713-2.232
							s1.121-0.978,1.932-1.155v1.106c-1.1,0.401-1.65,1.162-1.65,2.281c0,0.841,0.314,1.52,0.943,2.037
							c0.631,0.519,1.459,0.777,2.486,0.777c1.025,0,1.857-0.261,2.492-0.784c0.635-0.522,0.951-1.208,0.951-2.058
							c0-0.737-0.217-1.323-0.65-1.757C457.953,174.645,457.359,174.396,456.604,174.33z"/>
						<path fill="#585A5E" d="M459.893,167.218v1.008h-0.461c0.139,0.131,0.27,0.351,0.391,0.658
							c0.121,0.309,0.184,0.635,0.184,0.98c0,0.653-0.184,1.201-0.547,1.645s-0.844,0.665-1.441,0.665
							c-0.57,0-1.037-0.229-1.4-0.686s-0.547-1.022-0.547-1.694c0-0.308,0.053-0.611,0.154-0.91c0.104-0.298,0.221-0.518,0.35-0.658
							h-0.783c-0.4,0-0.723,0.119-0.967,0.357c-0.242,0.238-0.363,0.576-0.363,1.015c0,0.654,0.285,1.078,0.854,1.274v1.036
							c-0.521-0.103-0.947-0.366-1.273-0.791s-0.49-0.936-0.49-1.533c0-0.737,0.195-1.316,0.588-1.736s0.93-0.63,1.611-0.63H459.893
							z M458.354,168.226h-0.645c-0.225,0.094-0.408,0.278-0.553,0.554s-0.217,0.576-0.217,0.902c0,0.411,0.094,0.762,0.279,1.051
							c0.188,0.289,0.453,0.434,0.799,0.434c0.354,0,0.627-0.145,0.818-0.434s0.287-0.64,0.287-1.051
							c0-0.326-0.072-0.627-0.217-0.902S458.576,168.319,458.354,168.226z"/>
						<path fill="#585A5E" d="M458.324,165.174h-3.752v1.009h-0.895v-1.009h-1.639v-1.05h1.639v-1.498h0.895v1.498h3.641
							c0.578,0,0.869-0.275,0.869-0.826c0-0.289-0.086-0.56-0.254-0.812h0.98c0.141,0.262,0.211,0.588,0.211,0.979
							c0,0.523-0.143,0.938-0.428,1.246C459.307,165.021,458.885,165.174,458.324,165.174z"/>
						<path fill="#585A5E" d="M458.031,157.109v-0.993c0.607,0.111,1.09,0.387,1.449,0.825c0.359,0.439,0.539,0.999,0.539,1.681
							c0,0.849-0.297,1.537-0.889,2.064c-0.594,0.527-1.371,0.791-2.332,0.791c-0.941,0-1.719-0.261-2.33-0.784
							c-0.611-0.522-0.918-1.203-0.918-2.044c0-0.83,0.277-1.475,0.834-1.932c0.555-0.457,1.295-0.686,2.219-0.686h0.377v4.396
							c0.654-0.009,1.174-0.18,1.562-0.511c0.387-0.331,0.58-0.764,0.58-1.295c0-0.393-0.096-0.722-0.287-0.987
							S458.377,157.193,458.031,157.109z M454.447,158.636c0,0.467,0.154,0.858,0.461,1.176c0.309,0.317,0.734,0.514,1.275,0.588
							v-3.304c-0.496,0.01-0.908,0.145-1.24,0.406C454.613,157.763,454.447,158.142,454.447,158.636z"/>
						<path fill="#585A5E" d="M453.678,150.685l4.746-1.274l-4.746-1.372v-1.021l6.215,1.834v1.021l-4.717,1.288l4.717,1.302v1.022
							l-6.215,1.834v-1.05l4.746-1.372l-4.746-1.274V150.685z"/>
						<path fill="#585A5E" d="M459.893,141.36v1.008h-0.461c0.139,0.131,0.27,0.351,0.391,0.658c0.121,0.309,0.184,0.635,0.184,0.98
							c0,0.653-0.184,1.201-0.547,1.645s-0.844,0.665-1.441,0.665c-0.57,0-1.037-0.229-1.4-0.686s-0.547-1.022-0.547-1.694
							c0-0.308,0.053-0.611,0.154-0.91c0.104-0.298,0.221-0.518,0.35-0.658h-0.783c-0.4,0-0.723,0.119-0.967,0.357
							c-0.242,0.238-0.363,0.576-0.363,1.015c0,0.654,0.285,1.078,0.854,1.274v1.036c-0.521-0.103-0.947-0.366-1.273-0.791
							s-0.49-0.936-0.49-1.533c0-0.737,0.195-1.316,0.588-1.736s0.93-0.63,1.611-0.63H459.893z M458.354,142.368h-0.645
							c-0.225,0.094-0.408,0.278-0.553,0.554s-0.217,0.576-0.217,0.902c0,0.411,0.094,0.762,0.279,1.051
							c0.188,0.289,0.453,0.434,0.799,0.434c0.354,0,0.627-0.145,0.818-0.434s0.287-0.64,0.287-1.051
							c0-0.326-0.072-0.627-0.217-0.902S458.576,142.462,458.354,142.368z"/>
						<path fill="#585A5E" d="M462.273,137.846v1.036l-2.338-0.938l-6.258,2.422v-1.134l4.898-1.834l-4.898-1.807V134.5
							L462.273,137.846z"/>
					</g>
				</g>
			</g>
		</g>
		<g>
			<g>
				<g>
					<g>
						<path fill="#585A5E" d="M303.597,116.493h-1.254v-0.33c-0.105,0.105-0.297,0.205-0.574,0.297
							c-0.277,0.093-0.57,0.139-0.878,0.139c-0.625,0-1.146-0.173-1.564-0.521c-0.418-0.347-0.627-0.812-0.627-1.393
							c0-0.545,0.218-0.997,0.653-1.353c0.436-0.356,0.979-0.534,1.63-0.534c0.256,0,0.516,0.037,0.779,0.112
							c0.264,0.075,0.457,0.157,0.581,0.244v-0.475c0-0.308-0.098-0.561-0.291-0.759c-0.193-0.198-0.471-0.297-0.831-0.297
							c-0.52,0-0.854,0.211-1.004,0.633h-1.267c0.088-0.51,0.345-0.931,0.772-1.26c0.427-0.33,0.935-0.495,1.524-0.495
							c0.739,0,1.315,0.191,1.729,0.574c0.414,0.383,0.621,0.909,0.621,1.577V116.493z M302.343,114.935v-0.488
							c-0.071-0.176-0.221-0.319-0.449-0.429c-0.229-0.11-0.479-0.165-0.752-0.165c-0.326,0-0.609,0.071-0.852,0.211
							s-0.363,0.348-0.363,0.62c0,0.273,0.119,0.482,0.356,0.627c0.237,0.146,0.523,0.218,0.858,0.218
							c0.272,0,0.523-0.055,0.752-0.165C302.123,115.254,302.272,115.111,302.343,114.935z"/>
						<path fill="#585A5E" d="M310.026,110.632v5.861h-1.32v-0.554c-0.396,0.458-0.92,0.686-1.57,0.686
							c-0.651,0-1.157-0.198-1.519-0.594c-0.36-0.396-0.541-0.924-0.541-1.584v-3.815h1.32v3.59c0,0.801,0.364,1.201,1.096,1.201
							c0.29,0,0.547-0.085,0.771-0.257c0.225-0.171,0.372-0.398,0.442-0.68v-3.854H310.026z"/>
						<path fill="#585A5E" d="M311.965,114.909v-3.181h-0.924v-1.096h0.924v-1.571h1.32v1.571h1.319v1.096h-1.319v3.036
							c0,0.458,0.232,0.686,0.699,0.686c0.281,0,0.532-0.079,0.752-0.237v1.201c-0.237,0.141-0.567,0.211-0.989,0.211
							c-0.546,0-0.979-0.145-1.301-0.436S311.965,115.472,311.965,114.909z"/>
						<path fill="#585A5E" d="M316.083,116.493v-8.58h1.32v3.273c0.396-0.457,0.924-0.686,1.584-0.686
							c0.65,0,1.159,0.198,1.524,0.594s0.548,0.924,0.548,1.584v3.815h-1.32v-3.59c0-0.378-0.092-0.673-0.277-0.884
							c-0.185-0.211-0.462-0.317-0.831-0.317c-0.291,0-0.55,0.086-0.779,0.257c-0.229,0.171-0.378,0.398-0.448,0.68v3.854H316.083z"
							/>
						<path fill="#585A5E" d="M325.535,116.493v-8.58h1.32v3.273c0.396-0.457,0.924-0.686,1.584-0.686
							c0.65,0,1.159,0.198,1.524,0.594s0.548,0.924,0.548,1.584v3.815h-1.32v-3.59c0-0.378-0.092-0.673-0.277-0.884
							c-0.185-0.211-0.462-0.317-0.831-0.317c-0.291,0-0.55,0.086-0.779,0.257c-0.229,0.171-0.378,0.398-0.448,0.68v3.854H325.535z"
							/>
						<path fill="#585A5E" d="M335.686,114.671h1.214c-0.105,0.599-0.372,1.074-0.799,1.426s-0.983,0.528-1.669,0.528
							c-0.818,0-1.485-0.281-2-0.845c-0.515-0.563-0.772-1.298-0.772-2.204c0-0.88,0.26-1.613,0.779-2.198
							c0.519-0.585,1.175-0.877,1.967-0.877c0.809,0,1.437,0.262,1.881,0.785c0.444,0.524,0.666,1.226,0.666,2.105v0.475h-3.999
							c0.018,0.511,0.16,0.913,0.429,1.208s0.618,0.442,1.05,0.442C335.126,115.516,335.544,115.234,335.686,114.671z
							 M334.418,111.609c-0.369,0-0.68,0.112-0.931,0.336c-0.251,0.224-0.416,0.543-0.495,0.957h2.653
							c-0.009-0.378-0.119-0.688-0.33-0.931C335.105,111.73,334.805,111.609,334.418,111.609z"/>
						<path fill="#585A5E" d="M342.682,116.493h-1.254v-0.33c-0.105,0.105-0.297,0.205-0.574,0.297
							c-0.277,0.093-0.57,0.139-0.878,0.139c-0.625,0-1.146-0.173-1.564-0.521c-0.418-0.347-0.627-0.812-0.627-1.393
							c0-0.545,0.218-0.997,0.653-1.353c0.436-0.356,0.979-0.534,1.63-0.534c0.256,0,0.516,0.037,0.779,0.112
							c0.264,0.075,0.457,0.157,0.581,0.244v-0.475c0-0.308-0.098-0.561-0.291-0.759c-0.193-0.198-0.471-0.297-0.831-0.297
							c-0.52,0-0.854,0.211-1.004,0.633h-1.267c0.088-0.51,0.345-0.931,0.772-1.26c0.427-0.33,0.935-0.495,1.524-0.495
							c0.739,0,1.315,0.191,1.729,0.574c0.414,0.383,0.621,0.909,0.621,1.577V116.493z M341.428,114.935v-0.488
							c-0.071-0.176-0.221-0.319-0.449-0.429c-0.229-0.11-0.479-0.165-0.752-0.165c-0.326,0-0.609,0.071-0.852,0.211
							s-0.363,0.348-0.363,0.62c0,0.273,0.119,0.482,0.356,0.627c0.237,0.146,0.523,0.218,0.858,0.218
							c0.272,0,0.523-0.055,0.752-0.165C341.208,115.254,341.357,115.111,341.428,114.935z"/>
						<path fill="#585A5E" d="M348.041,116.493v-0.501c-0.141,0.176-0.348,0.326-0.62,0.449c-0.273,0.123-0.563,0.185-0.872,0.185
							c-0.836,0-1.498-0.292-1.986-0.877c-0.488-0.585-0.732-1.313-0.732-2.185c0-0.872,0.244-1.6,0.732-2.185
							c0.488-0.585,1.15-0.877,1.986-0.877c0.309,0,0.599,0.062,0.872,0.185c0.272,0.124,0.479,0.273,0.62,0.449v-3.221h1.32v8.58
							H348.041z M348.041,114.671v-2.217c-0.114-0.229-0.286-0.416-0.515-0.561c-0.229-0.146-0.48-0.218-0.753-0.218
							c-0.501,0-0.897,0.176-1.188,0.528c-0.291,0.352-0.436,0.805-0.436,1.36c0,0.554,0.145,1.007,0.436,1.359
							c0.29,0.352,0.687,0.528,1.188,0.528c0.272,0,0.523-0.072,0.753-0.218C347.754,115.087,347.926,114.9,348.041,114.671z"/>
						<path fill="#585A5E" d="M354.615,114.671h1.214c-0.105,0.599-0.372,1.074-0.799,1.426s-0.983,0.528-1.669,0.528
							c-0.818,0-1.485-0.281-2-0.845c-0.515-0.563-0.772-1.298-0.772-2.204c0-0.88,0.26-1.613,0.779-2.198
							c0.519-0.585,1.175-0.877,1.967-0.877c0.809,0,1.437,0.262,1.881,0.785c0.444,0.524,0.666,1.226,0.666,2.105v0.475h-3.999
							c0.018,0.511,0.16,0.913,0.429,1.208s0.618,0.442,1.05,0.442C354.055,115.516,354.473,115.234,354.615,114.671z
							 M353.347,111.609c-0.369,0-0.68,0.112-0.931,0.336c-0.251,0.224-0.416,0.543-0.495,0.957h2.653
							c-0.009-0.378-0.119-0.688-0.33-0.931C354.034,111.73,353.734,111.609,353.347,111.609z"/>
						<path fill="#585A5E" d="M360.369,110.605v1.359c-0.185-0.132-0.444-0.198-0.778-0.198c-0.282,0-0.533,0.082-0.753,0.244
							c-0.22,0.163-0.36,0.394-0.422,0.693v3.789h-1.32v-5.861h1.32v0.607c0.114-0.22,0.29-0.398,0.527-0.535
							c0.238-0.136,0.497-0.205,0.779-0.205C360.03,110.5,360.246,110.535,360.369,110.605z"/>
					</g>
				</g>
				<g>
					<g>
						<path fill="#585A5E" d="M301.511,100.135h-0.977v3.287h-1.373v-8.105h3.129c0.854,0,1.526,0.209,2.02,0.627
							c0.492,0.418,0.739,1.019,0.739,1.802c0,0.668-0.183,1.199-0.548,1.59s-0.874,0.64-1.525,0.746l2.35,3.34h-1.557
							L301.511,100.135z M300.535,96.504v2.482h1.729c0.448,0,0.798-0.112,1.049-0.337c0.251-0.224,0.376-0.525,0.376-0.904
							s-0.125-0.68-0.376-0.904c-0.251-0.225-0.601-0.337-1.049-0.337H300.535z"/>
						<path fill="#585A5E" d="M310.026,101.6h1.214c-0.105,0.599-0.372,1.074-0.799,1.426s-0.983,0.528-1.669,0.528
							c-0.818,0-1.485-0.281-2-0.845c-0.515-0.563-0.772-1.298-0.772-2.204c0-0.88,0.26-1.613,0.779-2.198
							c0.519-0.585,1.175-0.877,1.967-0.877c0.809,0,1.437,0.262,1.881,0.785c0.444,0.524,0.666,1.226,0.666,2.105v0.475h-3.999
							c0.018,0.511,0.16,0.913,0.429,1.208s0.618,0.442,1.05,0.442C309.466,102.445,309.884,102.163,310.026,101.6z M308.758,98.538
							c-0.369,0-0.68,0.112-0.931,0.336c-0.251,0.224-0.416,0.543-0.495,0.957h2.653c-0.009-0.378-0.119-0.688-0.33-0.931
							C309.445,98.659,309.145,98.538,308.758,98.538z"/>
						<path fill="#585A5E" d="M316.308,105.666v-2.746c-0.141,0.176-0.348,0.326-0.62,0.449c-0.273,0.123-0.563,0.185-0.872,0.185
							c-0.827,0-1.486-0.297-1.979-0.891c-0.493-0.594-0.739-1.318-0.739-2.171s0.246-1.578,0.739-2.171
							c0.493-0.594,1.152-0.891,1.979-0.891c0.309,0,0.599,0.062,0.872,0.185c0.272,0.124,0.479,0.273,0.62,0.449v-0.501h1.32v8.105
							H316.308z M316.308,101.6v-2.217c-0.114-0.229-0.286-0.416-0.515-0.561c-0.229-0.146-0.48-0.218-0.753-0.218
							c-0.501,0-0.897,0.176-1.188,0.528c-0.291,0.352-0.436,0.805-0.436,1.36c0,0.554,0.145,1.007,0.436,1.359
							c0.29,0.352,0.687,0.528,1.188,0.528c0.272,0,0.523-0.072,0.753-0.218C316.022,102.016,316.194,101.829,316.308,101.6z"/>
						<path fill="#585A5E" d="M324.136,97.561v5.861h-1.32v-0.554c-0.396,0.458-0.92,0.686-1.57,0.686
							c-0.651,0-1.157-0.198-1.519-0.594c-0.36-0.396-0.541-0.924-0.541-1.584v-3.815h1.32v3.59c0,0.801,0.364,1.201,1.096,1.201
							c0.29,0,0.547-0.085,0.771-0.257c0.225-0.171,0.372-0.398,0.442-0.68v-3.854H324.136z"/>
						<path fill="#585A5E" d="M329.39,101.6h1.214c-0.105,0.599-0.372,1.074-0.799,1.426s-0.983,0.528-1.669,0.528
							c-0.818,0-1.485-0.281-2-0.845c-0.515-0.563-0.772-1.298-0.772-2.204c0-0.88,0.26-1.613,0.779-2.198
							c0.519-0.585,1.175-0.877,1.967-0.877c0.809,0,1.437,0.262,1.881,0.785c0.444,0.524,0.666,1.226,0.666,2.105v0.475h-3.999
							c0.018,0.511,0.16,0.913,0.429,1.208s0.618,0.442,1.05,0.442C328.831,102.445,329.249,102.163,329.39,101.6z M328.123,98.538
							c-0.369,0-0.68,0.112-0.931,0.336c-0.251,0.224-0.416,0.543-0.495,0.957h2.653c-0.009-0.378-0.119-0.688-0.33-0.931
							C328.809,98.659,328.509,98.538,328.123,98.538z"/>
						<path fill="#585A5E" d="M331.461,101.732h1.347c0.149,0.493,0.536,0.739,1.161,0.739c0.309,0,0.553-0.06,0.732-0.178
							c0.181-0.119,0.271-0.292,0.271-0.521c0-0.159-0.053-0.284-0.158-0.376c-0.105-0.092-0.281-0.169-0.527-0.231l-1.215-0.29
							c-0.968-0.229-1.452-0.766-1.452-1.611c0-0.528,0.209-0.965,0.627-1.313s0.948-0.521,1.591-0.521
							c0.669,0,1.201,0.152,1.598,0.455c0.396,0.304,0.646,0.729,0.752,1.274h-1.294c-0.132-0.431-0.488-0.646-1.068-0.646
							c-0.256,0-0.476,0.057-0.66,0.171c-0.186,0.114-0.277,0.282-0.277,0.501c0,0.255,0.202,0.436,0.607,0.542l1.24,0.29
							c1.003,0.238,1.505,0.792,1.505,1.664c0,0.572-0.213,1.027-0.64,1.366c-0.428,0.339-0.976,0.508-1.644,0.508
							c-0.687,0-1.252-0.163-1.696-0.488C331.816,102.74,331.549,102.295,331.461,101.732z"/>
						<path fill="#585A5E" d="M337.837,101.837v-3.181h-0.924v-1.096h0.924V95.99h1.32v1.571h1.319v1.096h-1.319v3.036
							c0,0.458,0.232,0.686,0.699,0.686c0.281,0,0.532-0.079,0.752-0.237v1.201c-0.237,0.141-0.567,0.211-0.989,0.211
							c-0.546,0-0.979-0.145-1.301-0.436S337.837,102.401,337.837,101.837z"/>
						<path fill="#585A5E" d="M348.978,97.561l1.029,4.158l1.136-4.158h1.28l-1.703,5.861h-1.32l-1.043-4.079l-1.042,4.079h-1.32
							l-1.703-5.861h1.32l1.135,4.158l1.03-4.158H348.978z"/>
						<path fill="#585A5E" d="M354.713,95.224c0.162,0.159,0.244,0.348,0.244,0.568c0,0.22-0.082,0.409-0.244,0.567
							c-0.163,0.158-0.354,0.238-0.574,0.238s-0.411-0.08-0.574-0.238s-0.244-0.348-0.244-0.567c0-0.22,0.081-0.409,0.244-0.568
							c0.163-0.158,0.354-0.237,0.574-0.237S354.55,95.066,354.713,95.224z M354.799,97.561v5.861h-1.32v-5.861H354.799z"/>
						<path fill="#585A5E" d="M356.739,101.837v-3.181h-0.924v-1.096h0.924V95.99h1.32v1.571h1.319v1.096h-1.319v3.036
							c0,0.458,0.232,0.686,0.699,0.686c0.281,0,0.532-0.079,0.752-0.237v1.201c-0.237,0.141-0.567,0.211-0.989,0.211
							c-0.546,0-0.979-0.145-1.301-0.436S356.739,102.401,356.739,101.837z"/>
						<path fill="#585A5E" d="M360.857,103.421v-8.58h1.32v3.273c0.396-0.457,0.924-0.686,1.584-0.686
							c0.65,0,1.159,0.198,1.524,0.594s0.548,0.924,0.548,1.584v3.815h-1.32v-3.59c0-0.378-0.092-0.673-0.277-0.884
							c-0.185-0.211-0.462-0.317-0.831-0.317c-0.291,0-0.55,0.086-0.779,0.257c-0.229,0.171-0.378,0.398-0.448,0.68v3.854H360.857z"
							/>
					</g>
				</g>
				<g>
					<g>
						<path fill="#585A5E" d="M298.509,151.287h-0.977v3.287h-1.373v-8.105h3.129c0.854,0,1.526,0.21,2.02,0.627
							c0.492,0.419,0.739,1.02,0.739,1.803c0,0.668-0.183,1.199-0.548,1.59c-0.365,0.393-0.874,0.641-1.525,0.746l2.35,3.34h-1.557
							L298.509,151.287z M297.532,147.657v2.481h1.729c0.448,0,0.798-0.111,1.049-0.336s0.376-0.525,0.376-0.904
							s-0.125-0.68-0.376-0.904s-0.601-0.337-1.049-0.337H297.532z"/>
						<path fill="#585A5E" d="M307.023,152.752h1.214c-0.105,0.6-0.372,1.074-0.799,1.426c-0.427,0.353-0.983,0.528-1.669,0.528
							c-0.818,0-1.485-0.281-2-0.845c-0.515-0.562-0.772-1.298-0.772-2.204c0-0.88,0.26-1.612,0.779-2.198
							c0.519-0.585,1.175-0.877,1.967-0.877c0.809,0,1.437,0.262,1.881,0.785s0.666,1.225,0.666,2.105v0.475h-3.999
							c0.018,0.511,0.16,0.913,0.429,1.208s0.618,0.442,1.05,0.442C306.464,153.598,306.882,153.316,307.023,152.752z
							 M305.756,149.69c-0.369,0-0.68,0.112-0.931,0.337c-0.251,0.224-0.416,0.543-0.495,0.957h2.653
							c-0.009-0.379-0.119-0.689-0.33-0.932C306.442,149.812,306.143,149.69,305.756,149.69z"/>
						<path fill="#585A5E" d="M309.095,152.885h1.347c0.149,0.492,0.536,0.739,1.161,0.739c0.309,0,0.553-0.06,0.732-0.179
							c0.181-0.119,0.271-0.292,0.271-0.521c0-0.158-0.053-0.283-0.158-0.376s-0.281-0.169-0.527-0.231l-1.215-0.289
							c-0.968-0.229-1.452-0.766-1.452-1.611c0-0.527,0.209-0.965,0.627-1.312s0.948-0.521,1.591-0.521
							c0.669,0,1.201,0.151,1.598,0.455c0.396,0.303,0.646,0.729,0.752,1.273h-1.294c-0.132-0.432-0.488-0.646-1.068-0.646
							c-0.256,0-0.476,0.057-0.66,0.172c-0.186,0.113-0.277,0.281-0.277,0.501c0,0.255,0.202,0.436,0.607,0.542l1.24,0.289
							c1.003,0.238,1.505,0.793,1.505,1.664c0,0.572-0.213,1.027-0.64,1.366c-0.428,0.339-0.976,0.508-1.644,0.508
							c-0.687,0-1.252-0.163-1.696-0.488S309.183,153.447,309.095,152.885z"/>
						<path fill="#585A5E" d="M316.487,154.072v2.746h-1.32v-8.105h1.32v0.502c0.141-0.176,0.348-0.325,0.62-0.449
							c0.272-0.123,0.563-0.184,0.871-0.184c0.827,0,1.487,0.297,1.98,0.891c0.492,0.594,0.739,1.318,0.739,2.172
							s-0.247,1.576-0.739,2.171c-0.493,0.594-1.153,0.891-1.98,0.891c-0.308,0-0.599-0.062-0.871-0.185
							S316.628,154.248,316.487,154.072z M316.487,150.535v2.217c0.114,0.229,0.285,0.416,0.515,0.562
							c0.229,0.146,0.479,0.218,0.752,0.218c0.502,0,0.897-0.176,1.188-0.527c0.29-0.353,0.436-0.806,0.436-1.359
							c0-0.555-0.146-1.008-0.436-1.36c-0.291-0.353-0.687-0.528-1.188-0.528c-0.272,0-0.523,0.072-0.752,0.219
							C316.772,150.119,316.602,150.307,316.487,150.535z"/>
						<path fill="#585A5E" d="M326.313,149.439c0.516,0.572,0.772,1.307,0.772,2.205c0,0.896-0.257,1.632-0.772,2.203
							c-0.515,0.572-1.186,0.858-2.013,0.858s-1.498-0.286-2.013-0.858c-0.515-0.571-0.772-1.307-0.772-2.203
							c0-0.898,0.258-1.633,0.772-2.205s1.186-0.857,2.013-0.857S325.799,148.867,326.313,149.439z M325.383,153.037
							c0.256-0.357,0.383-0.821,0.383-1.393c0-0.572-0.127-1.037-0.383-1.394c-0.255-0.356-0.615-0.534-1.082-0.534
							s-0.827,0.178-1.082,0.534c-0.256,0.356-0.383,0.821-0.383,1.394c0,0.571,0.127,1.035,0.383,1.393
							c0.255,0.355,0.615,0.533,1.082,0.533S325.128,153.393,325.383,153.037z"/>
						<path fill="#585A5E" d="M328.313,154.574v-5.861h1.32v0.555c0.396-0.457,0.924-0.686,1.584-0.686
							c0.65,0,1.159,0.197,1.524,0.594c0.365,0.396,0.548,0.924,0.548,1.584v3.814h-1.32v-3.59c0-0.379-0.092-0.674-0.277-0.885
							c-0.185-0.211-0.462-0.316-0.831-0.316c-0.291,0-0.55,0.086-0.779,0.257c-0.229,0.171-0.378,0.398-0.448,0.68v3.854H328.313z"
							/>
						<path fill="#585A5E" d="M334.438,152.885h1.347c0.149,0.492,0.536,0.739,1.161,0.739c0.309,0,0.553-0.06,0.732-0.179
							c0.181-0.119,0.271-0.292,0.271-0.521c0-0.158-0.053-0.283-0.158-0.376s-0.281-0.169-0.527-0.231l-1.215-0.289
							c-0.968-0.229-1.452-0.766-1.452-1.611c0-0.527,0.209-0.965,0.627-1.312s0.948-0.521,1.591-0.521
							c0.669,0,1.201,0.151,1.598,0.455c0.396,0.303,0.646,0.729,0.752,1.273h-1.294c-0.132-0.432-0.488-0.646-1.068-0.646
							c-0.256,0-0.476,0.057-0.66,0.172c-0.186,0.113-0.277,0.281-0.277,0.501c0,0.255,0.202,0.436,0.607,0.542l1.24,0.289
							c1.003,0.238,1.505,0.793,1.505,1.664c0,0.572-0.213,1.027-0.64,1.366c-0.428,0.339-0.976,0.508-1.644,0.508
							c-0.687,0-1.252-0.163-1.696-0.488S334.526,153.447,334.438,152.885z"/>
						<path fill="#585A5E" d="M344.128,152.752h1.214c-0.105,0.6-0.372,1.074-0.799,1.426c-0.427,0.353-0.983,0.528-1.669,0.528
							c-0.818,0-1.485-0.281-2-0.845c-0.515-0.562-0.772-1.298-0.772-2.204c0-0.88,0.26-1.612,0.779-2.198
							c0.519-0.585,1.175-0.877,1.967-0.877c0.809,0,1.437,0.262,1.881,0.785s0.666,1.225,0.666,2.105v0.475h-3.999
							c0.018,0.511,0.16,0.913,0.429,1.208s0.618,0.442,1.05,0.442C343.568,153.598,343.986,153.316,344.128,152.752z
							 M342.86,149.69c-0.369,0-0.68,0.112-0.931,0.337c-0.251,0.224-0.416,0.543-0.495,0.957h2.653
							c-0.009-0.379-0.119-0.689-0.33-0.932C343.547,149.812,343.247,149.69,342.86,149.69z"/>
					</g>
				</g>
			</g>
		</g>
		<g>
			<g>
				<g>
					<g>
						
							<line fill="none" stroke="#585A5E" stroke-width="1.1" stroke-miterlimit="10" x1="269.203" y1="126.578" x2="416.238" y2="126.578"/>
						<g>
							<polygon fill="#585A5E" points="415.419,129.375 420.264,126.578 415.419,123.781 							"/>
						</g>
					</g>
				</g>
				<g>
					<g>
						
							<line fill="none" stroke="#585A5E" stroke-width="1.1" stroke-miterlimit="10" x1="420.264" y1="136.078" x2="273.229" y2="136.078"/>
						<g>
							<polygon fill="#585A5E" points="274.047,133.281 269.203,136.078 274.047,138.875 							"/>
						</g>
					</g>
				</g>
			</g>
		</g>
		<g>
			<g>
				<g>
					<g>
						<path fill="#585A5E" d="M220.646,177.895c-0.681-0.758-1.021-1.748-1.021-2.971c0-1.221,0.34-2.211,1.021-2.971
							c0.68-0.758,1.532-1.137,2.555-1.137c0.823,0,1.505,0.221,2.047,0.664c0.542,0.441,0.895,1.039,1.06,1.793h-1.014
							c-0.364-1.021-1.062-1.533-2.093-1.533c-0.763,0-1.378,0.291-1.846,0.877c-0.468,0.584-0.702,1.354-0.702,2.307
							c0,0.945,0.234,1.713,0.702,2.301c0.468,0.59,1.083,0.885,1.846,0.885c1.04,0,1.737-0.516,2.093-1.547h1.014
							c-0.165,0.764-0.518,1.365-1.06,1.807c-0.542,0.443-1.224,0.664-2.047,0.664C222.178,179.033,221.327,178.654,220.646,177.895
							z"/>
						<path fill="#585A5E" d="M228.609,170.465v8.451h-0.975v-8.451H228.609z"/>
						<path fill="#585A5E" d="M231.28,170.959c0.126,0.121,0.188,0.27,0.188,0.443c0,0.172-0.062,0.32-0.188,0.441
							c-0.125,0.121-0.275,0.182-0.448,0.182s-0.321-0.061-0.442-0.182c-0.122-0.121-0.182-0.27-0.182-0.441
							c0-0.174,0.061-0.322,0.182-0.443c0.121-0.121,0.269-0.182,0.442-0.182S231.155,170.838,231.28,170.959z M231.326,173.143
							v5.773h-0.975v-5.773H231.326z"/>
						<path fill="#585A5E" d="M236.708,177.188h0.923c-0.104,0.562-0.36,1.012-0.767,1.344c-0.407,0.334-0.927,0.502-1.56,0.502
							c-0.789,0-1.428-0.275-1.917-0.826s-0.734-1.271-0.734-2.164c0-0.875,0.243-1.598,0.728-2.164
							c0.485-0.568,1.118-0.852,1.898-0.852c0.771,0,1.369,0.258,1.794,0.773c0.424,0.516,0.637,1.201,0.637,2.061v0.35h-4.082
							c0.008,0.607,0.167,1.09,0.474,1.449c0.308,0.361,0.708,0.541,1.203,0.541c0.364,0,0.669-0.09,0.917-0.268
							S236.63,177.508,236.708,177.188z M235.291,173.859c-0.434,0-0.798,0.143-1.092,0.428c-0.295,0.287-0.477,0.682-0.546,1.184
							h3.068c-0.009-0.459-0.134-0.844-0.377-1.15C236.101,174.012,235.75,173.859,235.291,173.859z"/>
						<path fill="#585A5E" d="M239.009,178.916v-5.773h0.975v0.729c0.182-0.242,0.422-0.443,0.721-0.604
							c0.299-0.16,0.626-0.24,0.981-0.24c0.642,0,1.14,0.189,1.495,0.57c0.355,0.383,0.533,0.895,0.533,1.535v3.783h-0.988v-3.627
							c0-0.416-0.106-0.748-0.318-0.994c-0.212-0.248-0.531-0.371-0.956-0.371c-0.338,0-0.642,0.102-0.91,0.305
							c-0.269,0.205-0.455,0.463-0.559,0.773v3.914H239.009z"/>
						<path fill="#585A5E" d="M245.639,177.459v-3.484h-0.936v-0.832h0.936v-1.52h0.975v1.52h1.391v0.832h-1.391v3.381
							c0,0.537,0.255,0.807,0.767,0.807c0.268,0,0.52-0.078,0.754-0.234v0.91c-0.243,0.129-0.546,0.195-0.91,0.195
							c-0.485,0-0.871-0.133-1.157-0.396C245.782,178.371,245.639,177.98,245.639,177.459z"/>
					</g>
				</g>
				<g id="hVCAm4_13_">
					<g>
						<path fill-rule="evenodd" clip-rule="evenodd" fill="#585A5E" d="M211.439,152.709c0.151-0.213,0.443-0.432,0.436-0.639
							c-0.25-5.545,2.992-7.986,7.875-9.254c1.987-0.516,3.899-1.516,5.688-2.564c4.67-2.734,5.23-4.906,2.691-9.549
							c-2.778-5.08-2.293-10.461-1.207-15.787c0.247-1.215,1.588-2.463,2.744-3.186c3.265-2.043,9.669-1.34,12.621,1.115
							c2.58,2.146,2.085,5.188,2.549,8.023c0.731,4.471-0.407,8.445-2.451,12.293c-1.134,2.133-0.485,3.904,1.199,5.307
							c1.24,1.031,2.628,1.928,4.06,2.672c1.442,0.752,2.972,1.445,4.547,1.814c4.621,1.084,7.543,3.559,7.78,8.582
							c0.029,0.584,0.438,1.146,0.671,1.719c0,0.363,0,0.73,0,1.094c-13.099,12.721-33.543,14.994-49.202,0
							C211.439,153.803,211.439,153.256,211.439,152.709z"/>
					</g>
				</g>
			</g>
			<path fill="none" stroke="#585A5E" stroke-width="1.363" stroke-miterlimit="10" d="M269.716,130.678
				c0,9.076-3.535,17.328-9.304,23.451c-6.239,6.621-15.087,10.756-24.902,10.756c-9.445,0-17.998-3.83-24.188-10.02
				c-6.19-6.189-10.019-14.742-10.019-24.188c0-18.893,15.313-34.205,34.206-34.205S269.716,111.785,269.716,130.678z"/>
		</g>
	</g>
</g>
</svg>
